<svg width="421" height="205" viewBox="0 0 421 205" fill="none" xmlns="http://www.w3.org/2000/svg">
<path opacity="0.18" d="M24.0397 168.23C17.1215 162.883 11.415 156.13 7.29606 148.417C3.17711 140.704 0.739237 132.206 0.143057 123.482C-0.453123 114.759 0.805926 106.008 3.83725 97.8066C6.86857 89.605 11.6034 82.1388 17.7297 75.9C26.8897 66.66 38.7297 60.72 48.8897 52.72C66.4597 38.97 79.4697 19.11 99.0697 8.60996C122.67 -4.04004 151.27 -0.70004 177.19 5.60996C203.11 11.92 229.15 20.96 255.73 18.68C271.56 17.31 286.8 11.95 302.48 9.33996C318.16 6.72996 335.36 7.19996 348.48 16.34C367.58 29.73 372.12 56.79 387.79 74.24C395.38 82.7 405.46 88.72 412.18 97.92C422.99 112.71 422.71 134.92 411.53 149.43C397.21 167.98 371.37 170.92 350.53 181.12C338.93 186.8 328.53 194.99 316.53 199.75C291.31 209.75 262.94 203.24 237.08 195.16C211.22 187.08 184.58 177.36 157.81 181.32C132.81 185.04 110.28 200.47 85.0697 202.81C73.3697 203.9 60.0097 201.81 52.8597 191.71C45.1697 180.88 34.4497 176.23 24.0397 168.23Z" fill="#68E1FD"/>
<path d="M30.8193 110.92C37.6093 103.37 37.6093 103.37 45.3093 94.31L78.0793 55.96C85.3293 47.65 88.1993 43.88 92.0793 37.96H123.079C122.193 46.283 121.789 54.6503 121.869 63.02V112.13H126.249C131.272 112.083 136.284 111.679 141.249 110.92V138.4C136.339 137.797 131.396 137.496 126.449 137.5H121.919V145.05C121.775 151.264 122.18 157.478 123.129 163.62H91.9693C92.8267 157.367 93.2311 151.061 93.1793 144.75V137.35H50.4493C40.6293 137.35 36.4493 137.5 30.8193 137.95V110.92ZM93.3293 94.92C93.3293 88.12 93.6293 79.82 94.2393 73.17C91.2393 77.4 88.9493 80.42 84.8793 85.55L62.8293 112.43H93.3293V94.92Z" fill="#68E1FD"/>
<path d="M30.8193 110.92C37.6093 103.37 37.6093 103.37 45.3093 94.31L78.0793 55.96C85.3293 47.65 88.1993 43.88 92.0793 37.96H123.079C122.193 46.283 121.789 54.6503 121.869 63.02V112.13H126.249C131.272 112.083 136.284 111.679 141.249 110.92V138.4C136.339 137.797 131.396 137.496 126.449 137.5H121.919V145.05C121.775 151.264 122.18 157.478 123.129 163.62H91.9693C92.8267 157.367 93.2311 151.061 93.1793 144.75V137.35H50.4493C40.6293 137.35 36.4493 137.5 30.8193 137.95V110.92ZM93.3293 94.92C93.3293 88.12 93.6293 79.82 94.2393 73.17C91.2393 77.4 88.9493 80.42 84.8793 85.55L62.8293 112.43H93.3293V94.92Z" fill="url(#paint0_linear_31_5)"/>
<path d="M198.86 73.05C201.86 73.55 204.65 75.39 207.66 76.05C210.29 76.65 213.06 76.34 215.66 77.26C220.51 78.98 223.66 84.83 224.35 90.7C225.04 96.57 223.81 102.51 222.41 108.21C218.73 123.23 213.73 138.23 204.73 149.62C204.1 150.41 203.34 151.24 202.41 151.22C201.764 151.131 201.161 150.849 200.68 150.41C198.79 149.116 197.061 147.602 195.53 145.9C193.13 143.01 191.74 139.2 190.53 135.42C187.12 124.78 180.61 118.04 179.4 106.76C178.08 94.93 184.55 70.69 198.86 73.05Z" fill="#68E1FD"/>
<path d="M189.18 80.6299C187.903 80.3994 186.585 80.6373 185.47 81.3C184.299 82.0197 183.288 82.9711 182.499 84.0957C181.71 85.2204 181.159 86.4946 180.88 87.84C180.338 90.536 180.24 93.3024 180.59 96.03C181.274 104.035 182.826 111.941 185.22 119.61C185.92 121.83 183.92 127.1 185.37 128.92C186.55 130.4 185.96 139.29 187.5 140.39C191.77 143.47 200.64 141.77 204.91 144.85C210.44 148.85 210.07 138.29 209.19 133.94C208.19 129.09 200.68 129.94 194.93 113.56C187.28 91.76 191.14 81.0799 189.18 80.6299Z" fill="url(#paint1_linear_31_5)"/>
<path d="M263.97 110.36C270.76 102.81 270.76 102.81 278.46 93.75L311.23 55.39C316.344 49.7522 321.024 43.7349 325.23 37.39H356.23C355.343 45.7163 354.939 54.087 355.02 62.46V111.54H359.4C364.405 111.486 369.401 111.081 374.35 110.33V137.81C369.44 137.199 364.497 136.895 359.55 136.9H355.02V144.45C354.874 150.664 355.279 156.878 356.23 163.02H325.12C325.973 156.794 326.378 150.514 326.33 144.23V136.83H283.6C273.78 136.83 269.55 136.98 263.97 137.44V110.36ZM326.48 94.36C326.48 87.56 326.78 79.26 327.38 72.62C324.38 76.84 322.1 79.86 318.02 85L296.02 111.88H326.52L326.48 94.36Z" fill="#68E1FD"/>
<path d="M263.97 110.36C270.76 102.81 270.76 102.81 278.46 93.75L311.23 55.39C316.344 49.7522 321.024 43.7349 325.23 37.39H356.23C355.343 45.7163 354.939 54.087 355.02 62.46V111.54H359.4C364.405 111.486 369.401 111.081 374.35 110.33V137.81C369.44 137.199 364.497 136.895 359.55 136.9H355.02V144.45C354.874 150.664 355.279 156.878 356.23 163.02H325.12C325.973 156.794 326.378 150.514 326.33 144.23V136.83H283.6C273.78 136.83 269.55 136.98 263.97 137.44V110.36ZM326.48 94.36C326.48 87.56 326.78 79.26 327.38 72.62C324.38 76.84 322.1 79.86 318.02 85L296.02 111.88H326.52L326.48 94.36Z" fill="url(#paint2_linear_31_5)"/>
<path d="M166.26 151.17C161.445 146.424 157.695 140.707 155.26 134.4C151.281 123.309 149.287 111.603 149.37 99.82C149.37 83.97 153.15 67.51 158.89 58C168.1 42.59 183.8 34.14 202.83 34.14C217.48 34.14 230.31 39.14 239.52 48.14C244.335 52.8824 248.084 58.5958 250.52 64.9C254.506 76.0409 256.497 87.7977 256.4 99.63C256.4 115.49 252.63 132.1 246.89 141.63C237.83 156.75 221.98 165.23 202.8 165.23C188 165.23 175.47 160.37 166.26 151.17ZM180.26 98.62C180.26 125.62 187.96 139.54 202.91 139.54C217.86 139.54 225.26 125.95 225.26 99.07C225.26 73.25 217.41 59.66 202.76 59.66C188.61 59.66 180.3 74 180.3 98.62H180.26Z" fill="#68E1FD"/>
<path d="M166.26 151.17C161.445 146.424 157.695 140.707 155.26 134.4C151.281 123.309 149.287 111.603 149.37 99.82C149.37 83.97 153.15 67.51 158.89 58C168.1 42.59 183.8 34.14 202.83 34.14C217.48 34.14 230.31 39.14 239.52 48.14C244.335 52.8824 248.084 58.5958 250.52 64.9C254.506 76.0409 256.497 87.7977 256.4 99.63C256.4 115.49 252.63 132.1 246.89 141.63C237.83 156.75 221.98 165.23 202.8 165.23C188 165.23 175.47 160.37 166.26 151.17ZM180.26 98.62C180.26 125.62 187.96 139.54 202.91 139.54C217.86 139.54 225.26 125.95 225.26 99.07C225.26 73.25 217.41 59.66 202.76 59.66C188.61 59.66 180.3 74 180.3 98.62H180.26Z" fill="url(#paint3_linear_31_5)"/>
<path d="M34.21 110.36C41.01 102.81 41.01 102.81 48.71 93.75L81.48 55.39C86.5945 49.7522 91.2745 43.7349 95.48 37.39H126.48C125.593 45.7163 125.189 54.087 125.27 62.46V111.54H129.65C134.672 111.488 139.684 111.084 144.65 110.33V137.81C139.74 137.199 134.797 136.895 129.85 136.9H125.32V144.45C125.175 150.664 125.579 156.878 126.53 163.02H95.37C96.2235 156.794 96.6279 150.514 96.58 144.23V136.83H53.84C44.03 136.83 39.84 136.98 34.21 137.44V110.36ZM96.73 94.36C96.73 87.56 97.03 79.26 97.63 72.62C94.63 76.84 92.35 79.86 88.27 85L66.27 111.88H96.73V94.36Z" fill="#68E1FD"/>
<path d="M169.649 151.73C164.835 146.987 161.085 141.274 158.649 134.97C154.661 123.88 152.657 112.175 152.729 100.39C152.729 84.54 156.509 68.08 162.249 58.56C171.459 43.16 187.159 34.71 206.189 34.71C220.829 34.71 233.669 39.71 242.879 48.71C247.697 53.45 251.447 59.1641 253.879 65.47C257.889 76.6164 259.893 88.3847 259.799 100.23C259.799 116.08 256.029 132.7 250.289 142.23C241.229 157.33 225.369 165.78 206.199 165.78C191.399 165.77 178.869 160.94 169.649 151.73ZM183.729 99.23C183.729 126.23 191.429 140.15 206.379 140.15C221.179 140.15 228.729 126.56 228.729 99.69C228.729 73.86 220.869 60.27 206.229 60.27C191.999 60.23 183.729 74.57 183.729 99.23Z" fill="#68E1FD"/>
<path d="M230.83 46.6799C231.955 47.4999 232.812 48.6342 233.294 49.9402C233.777 51.2462 233.862 52.6656 233.54 54.0199C235.426 54.2001 237.258 54.7524 238.93 55.6449C240.602 56.5375 242.08 57.7526 243.28 59.2199C245.429 62.056 246.729 65.444 247.03 68.9899C247.318 72.5151 247.241 76.0606 246.8 79.5699C246.75 80.7827 246.5 81.9788 246.06 83.1099C245.542 84.0911 244.814 84.9453 243.927 85.611C243.04 86.2767 242.016 86.7374 240.93 86.9599C238.757 87.3936 236.533 87.4981 234.33 87.2699L229.08 86.9899C228.906 86.9939 228.735 86.9561 228.58 86.8799C228.475 86.7905 228.39 86.6804 228.329 86.5565C228.269 86.4326 228.235 86.2976 228.23 86.1599C227.87 84.0099 227.32 83.0699 226.93 80.9199C225.955 76.3807 224.048 72.0934 221.33 68.3299C220.848 67.7674 220.505 67.0994 220.33 66.3799C220.269 65.3853 220.491 64.394 220.97 63.5199C221.68 61.8004 222.269 60.0326 222.73 58.2299C223.153 56.0726 223.704 53.9423 224.38 51.8499C225.067 49.7352 226.485 47.9344 228.38 46.7699" fill="url(#paint4_linear_31_5)"/>
<path d="M228.38 109.49C228.38 109.49 247.6 111.19 256.38 99.49C259.88 94.85 252.08 72.99 252.08 72.99L243.21 88.87L229.21 92.05L228.38 109.49Z" fill="url(#paint5_linear_31_5)"/>
<path d="M267.65 110.36C274.44 102.81 274.44 102.81 282.14 93.75L314.91 55.39C322.16 47.09 325.03 43.31 328.91 37.39H359.91C359.032 45.7269 358.638 54.1076 358.73 62.49V111.57H363.11C368.115 111.516 373.111 111.111 378.06 110.36V137.84C373.15 137.229 368.207 136.925 363.26 136.93H358.73V144.48C358.584 150.694 358.989 156.908 359.94 163.05H328.8C329.655 156.814 330.059 150.524 330.01 144.23V136.83H287.28C277.46 136.83 273.23 136.98 267.65 137.44V110.36ZM330.16 94.36C330.16 87.56 330.46 79.26 331.07 72.62C328.07 76.84 325.78 79.86 321.71 85L299.66 111.88H330.16V94.36Z" fill="#68E1FD"/>
<path d="M183.28 75.29C182.762 75.479 182.26 75.7098 181.78 75.98C181.329 76.2084 180.933 76.5326 180.62 76.93C180.467 77.1315 180.369 77.3687 180.334 77.619C180.299 77.8693 180.328 78.1244 180.42 78.36C180.623 78.6731 180.916 78.9178 181.26 79.0623C181.604 79.2067 181.984 79.2443 182.35 79.17C183.58 79.05 184.72 78.44 185.95 78.23C187.18 78.02 188.34 77.17 187.47 75.86C186.6 74.55 184.51 74.83 183.28 75.29Z" fill="#F7AF87"/>
<path d="M187.2 78.23C185.4 77.76 183.52 78.55 181.9 79.46C181.518 79.6461 181.178 79.9081 180.9 80.23C180.733 80.3628 180.613 80.5453 180.558 80.7511C180.502 80.9568 180.514 81.1749 180.591 81.3737C180.668 81.5724 180.806 81.7413 180.986 81.8558C181.166 81.9702 181.377 82.0243 181.59 82.01C181.958 82.0468 182.33 82.0232 182.69 81.94L185.18 81.51C185.759 81.4422 186.323 81.2801 186.85 81.03C187.98 80.37 188.94 78.66 187.2 78.23Z" fill="#F7AF87"/>
<path d="M183.73 81.54C183.214 81.7366 182.712 81.9706 182.23 82.24C181.774 82.4828 181.377 82.8244 181.07 83.24C180.92 83.4408 180.823 83.6761 180.788 83.9244C180.753 84.1726 180.781 84.4256 180.87 84.66C181.073 84.9731 181.366 85.2178 181.71 85.3622C182.055 85.5067 182.434 85.5443 182.8 85.47C184.03 85.35 185.17 84.74 186.4 84.53C187.63 84.32 188.79 83.48 187.92 82.16C187.05 80.84 184.94 81.08 183.73 81.54Z" fill="#F7AF87"/>
<path d="M187.61 84.06C185.76 83.91 184.05 85.06 182.61 86.2C182.26 86.456 181.964 86.7789 181.74 87.15C181.602 87.311 181.52 87.5115 181.503 87.7225C181.487 87.9335 181.538 88.1442 181.65 88.3243C181.761 88.5044 181.926 88.6446 182.122 88.7247C182.318 88.8048 182.534 88.8206 182.74 88.77C183.105 88.7428 183.463 88.6549 183.8 88.51L186.17 87.64C186.732 87.4713 187.262 87.2112 187.74 86.87C188.73 86.05 189.4 84.23 187.61 84.06Z" fill="#F7AF87"/>
<path d="M240.61 55.83C237.694 54.4404 234.488 53.7717 231.26 53.88C230.714 53.8536 230.169 53.9422 229.66 54.14C229.411 54.2488 229.199 54.4277 229.049 54.655C228.9 54.8823 228.82 55.1481 228.82 55.42C228.917 55.8944 229.188 56.3153 229.58 56.6C230.761 57.6739 232.087 58.5761 233.52 59.28C233.952 59.4507 234.347 59.7056 234.68 60.03C234.843 60.1941 234.948 60.4071 234.978 60.6364C235.009 60.8657 234.964 61.0988 234.85 61.3C234.52 61.76 233.76 61.78 233.51 62.3C233.18 62.95 234.01 63.59 234.73 63.71C235.495 63.841 236.281 63.7686 237.01 63.5C237.52 63.2376 238.078 63.0811 238.65 63.04C239.215 63.1612 239.747 63.4034 240.21 63.75C241.79 64.65 246.7 64.68 246.39 61.94C246.1 59.4 242.63 56.88 240.61 55.83Z" fill="#F7AF87"/>
<path d="M216.45 77.8799C216.45 77.8799 238.56 86.9899 241.09 86.5199C243.62 86.0499 239.53 64.2299 239.53 64.2299L247.07 60.7799C247.07 60.7799 264.07 94.4799 250.15 99.3799C241.542 102.26 232.215 102.162 223.67 99.0999L216.45 77.8799Z" fill="#68E1FD"/>
<path d="M228.21 65.23C228.132 67.1875 227.67 69.1107 226.85 70.89C226.047 72.2157 224.947 73.3368 223.637 74.1646C222.326 74.9924 220.842 75.5043 219.3 75.66C218.176 75.7324 217.059 75.8895 215.96 76.13C215.45 76.2344 214.974 76.4635 214.574 76.7968C214.175 77.1301 213.864 77.5572 213.67 78.04C212.78 80.2 211.86 82.39 208.99 81.66C208.72 81.6002 208.458 81.5096 208.21 81.39C207.307 80.9664 206.496 80.3721 205.82 79.64C204.977 78.7877 204.245 77.8337 203.64 76.8C203.326 76.3216 203.115 75.7837 203.02 75.22C202.961 74.5274 203.042 73.8302 203.26 73.17C204.26 69.17 204.42 64.64 205.84 60.74C207.293 56.7866 210.07 53.4582 213.7 51.32C217.29 49.23 222.28 49.2 225.33 52.05C226.998 53.7205 228.055 55.9048 228.33 58.25C228.57 60.573 228.529 62.9165 228.21 65.23Z" fill="#F7AF87"/>
<path d="M203.89 60.23C204.08 58.35 204.07 56.44 204.44 54.59C204.719 52.6999 205.667 50.9724 207.11 49.72C207.472 49.4322 207.877 49.2028 208.31 49.04C208.7 48.9 209.11 48.82 209.51 48.71C210.685 48.2908 211.806 47.7336 212.85 47.05C214.432 46.1016 216.163 45.4255 217.97 45.05C219.19 44.8633 220.424 44.7763 221.66 44.79C223.926 44.75 226.203 44.73 228.49 44.73C229.026 44.6897 229.565 44.7789 230.06 44.99C230.603 45.3255 231 45.8542 231.17 46.47C231.605 47.8499 231.605 49.3302 231.17 50.71C230.727 52.0751 230.14 53.3892 229.42 54.63C229.068 55.412 228.573 56.121 227.96 56.72C227.43 55.8 226.96 54.85 226.48 53.89C224.95 55.48 222.54 55.89 220.34 55.72C218.14 55.55 215.98 54.98 213.78 54.95C213.256 54.8946 212.727 54.9429 212.223 55.0921C211.718 55.2414 211.248 55.4888 210.84 55.82C210.347 56.3943 210.003 57.0812 209.84 57.82C209.377 59.4661 209 61.135 208.71 62.82C208.45 62.33 207.4 61.05 206.85 61.07C206.691 61.0853 206.537 61.1332 206.398 61.2106C206.258 61.2881 206.136 61.3934 206.04 61.52C205.13 62.52 205.58 66.19 206.42 67.25C206.588 67.4106 206.715 67.6096 206.79 67.83C206.806 67.9774 206.794 68.1266 206.753 68.2691C206.712 68.4116 206.642 68.5444 206.55 68.66C206.319 68.9328 206.025 69.146 205.695 69.2818C205.364 69.4175 205.006 69.4718 204.65 69.44C203.77 69.44 203.6 67.76 203.51 67.14C203.14 64.83 203.67 62.5 203.89 60.23Z" fill="#606060"/>
<path d="M207.4 64.45C207.276 64.1916 207.221 63.9058 207.24 63.62C207.26 63.3335 207.23 63.0457 207.15 62.77C207.058 62.5171 206.877 62.307 206.64 62.18C206.571 62.1602 206.498 62.1602 206.43 62.18C206.372 62.2045 206.32 62.2429 206.28 62.2916C206.24 62.3404 206.212 62.3982 206.2 62.46C205.85 63.556 205.889 64.7392 206.31 65.81C206.365 66.0019 206.463 66.179 206.596 66.3278C206.73 66.4767 206.895 66.5937 207.08 66.67C207.243 66.7026 207.411 66.6941 207.57 66.6452C207.729 66.5963 207.873 66.5086 207.99 66.39C208.147 66.2235 208.255 66.0164 208.301 65.792C208.346 65.5676 208.329 65.3349 208.25 65.12C208.08 64.72 207.61 64.81 207.4 64.45Z" fill="url(#paint6_linear_31_5)"/>
<path d="M215.96 76.11C215.45 76.2145 214.974 76.4436 214.574 76.7769C214.175 77.1102 213.864 77.5372 213.67 78.02C212.78 80.18 211.86 82.37 208.99 81.64C208.72 81.5802 208.458 81.4896 208.21 81.37C207.967 81.1624 207.769 80.9071 207.63 80.62C207.501 80.2825 207.442 79.9226 207.456 79.5619C207.47 79.2011 207.556 78.8467 207.71 78.52C208.056 77.6796 208.64 76.9581 209.389 76.4433C210.138 75.9284 211.021 75.6424 211.93 75.62C212.693 75.6553 213.453 75.7557 214.2 75.92C214.66 75.98 215.2 75.92 215.62 75.97C215.742 75.9919 215.858 76.0396 215.96 76.11Z" fill="url(#paint7_linear_31_5)"/>
<defs>
<linearGradient id="paint0_linear_31_5" x1="-65.2707" y1="8.38996" x2="262.659" y2="191.89" gradientUnits="userSpaceOnUse">
<stop stop-opacity="0"/>
<stop offset="0.99"/>
</linearGradient>
<linearGradient id="paint1_linear_31_5" x1="216.89" y1="100.98" x2="115.05" y2="163.65" gradientUnits="userSpaceOnUse">
<stop stop-opacity="0"/>
<stop offset="0.99"/>
</linearGradient>
<linearGradient id="paint2_linear_31_5" x1="425.09" y1="185.44" x2="137.09" y2="-60.08" gradientUnits="userSpaceOnUse">
<stop stop-opacity="0"/>
<stop offset="0.99"/>
</linearGradient>
<linearGradient id="paint3_linear_31_5" x1="295.62" y1="103.44" x2="-18.4304" y2="90.7" gradientUnits="userSpaceOnUse">
<stop stop-opacity="0"/>
<stop offset="0.99"/>
</linearGradient>
<linearGradient id="paint4_linear_31_5" x1="258.97" y1="41.6099" x2="168.77" y2="138.17" gradientUnits="userSpaceOnUse">
<stop stop-opacity="0"/>
<stop offset="0.99"/>
</linearGradient>
<linearGradient id="paint5_linear_31_5" x1="246.16" y1="116.56" x2="232.94" y2="54.2" gradientUnits="userSpaceOnUse">
<stop stop-opacity="0"/>
<stop offset="0.99"/>
</linearGradient>
<linearGradient id="paint6_linear_31_5" x1="206.36" y1="64.59" x2="208.95" y2="63.69" gradientUnits="userSpaceOnUse">
<stop stop-opacity="0"/>
<stop offset="0.99"/>
</linearGradient>
<linearGradient id="paint7_linear_31_5" x1="207.05" y1="74.61" x2="222.34" y2="87.14" gradientUnits="userSpaceOnUse">
<stop stop-opacity="0"/>
<stop offset="0.99"/>
</linearGradient>
</defs>
</svg>
